<?xml version="1.0" encoding="UTF-8" standalone="no"?>
<!-- Created with Inkscape (http://www.inkscape.org/) -->

<svg
   xmlns:dc="http://purl.org/dc/elements/1.1/"
   xmlns:cc="http://creativecommons.org/ns#"
   xmlns:rdf="http://www.w3.org/1999/02/22-rdf-syntax-ns#"
   xmlns:svg="http://www.w3.org/2000/svg"
   xmlns="http://www.w3.org/2000/svg"
   xmlns:sodipodi="http://sodipodi.sourceforge.net/DTD/sodipodi-0.dtd"
   xmlns:inkscape="http://www.inkscape.org/namespaces/inkscape"
   width="60mm"
   height="60mm"
   viewBox="0 0 60 60"
   version="1.1"
   id="svg8"
   inkscape:version="0.92.5 (2060ec1f9f, 2020-04-08)"
   sodipodi:docname="x.svg">
  <defs
     id="defs2" />
  <sodipodi:namedview
     id="base"
     pagecolor="#ffffff"
     bordercolor="#666666"
     borderopacity="1.0"
     inkscape:pageopacity="0.0"
     inkscape:pageshadow="2"
     inkscape:zoom="1.4"
     inkscape:cx="389.96414"
     inkscape:cy="84.10369"
     inkscape:document-units="mm"
     inkscape:current-layer="layer1"
     showgrid="false"
     inkscape:window-width="1366"
     inkscape:window-height="705"
     inkscape:window-x="-8"
     inkscape:window-y="-8"
     inkscape:window-maximized="1" />
  <metadata
     id="metadata5">
    <rdf:RDF>
      <cc:Work
         rdf:about="">
        <dc:format>image/svg+xml</dc:format>
        <dc:type
           rdf:resource="http://purl.org/dc/dcmitype/StillImage" />
        <dc:title></dc:title>
      </cc:Work>
    </rdf:RDF>
  </metadata>
  <g
     inkscape:label="Capa 1"
     inkscape:groupmode="layer"
     id="layer1"
     transform="translate(0,-237)">
    <g
       id="g3724"
       transform="translate(-1.7008928,0.3779762)">
      <path
         style="fill:#fbfafa;stroke-width:0.26458332"
         d="M 1.9843761,266.76191 V 236.99628 H 31.750001 61.515626 v 29.76563 29.76562 H 31.750001 1.9843761 Z"
         id="path3740"
         inkscape:connector-curvature="0" />
      <path
         style="fill:#e3a0a0;stroke-width:0.26458332"
         d="m 9.8492022,288.90947 c -3.8890919,-3.89888 -7.075933,-7.2624 -7.0818692,-7.47447 -0.00594,-0.21208 3.2185062,-3.54075 7.1654275,-7.39705 l 7.1762215,-7.01146 -7.172698,-7.14059 c -3.9449836,-3.92733 -7.1396604,-7.28626 -7.0992818,-7.46428 0.1047372,-0.46178 14.2424658,-14.63159 14.5984608,-14.63159 0.162451,0 3.448837,3.15516 7.30308,7.01146 3.854243,3.8563 7.130989,7.01146 7.281659,7.01146 0.150667,0 3.350511,-3.15516 7.110759,-7.01146 3.76025,-3.8563 7.030286,-7.01146 7.266749,-7.01146 0.632677,0 14.588749,14.0349 14.588749,14.67115 0,0.33064 -2.573874,3.04156 -7.077604,7.45443 l -7.077604,6.93482 7.077604,7.10129 c 3.892683,3.90571 7.077604,7.2799 7.077604,7.4982 0,0.53382 -14.045091,14.54844 -14.580065,14.54844 -0.231688,0 -3.539445,-3.15515 -7.350575,-7.01145 -3.811127,-3.85631 -7.014877,-7.01146 -7.119443,-7.01146 -0.104566,0 -3.34359,3.15515 -7.197833,7.01146 -3.854243,3.8563 -7.190088,7.01145 -7.412989,7.01145 -0.222902,0 -3.58726,-3.19 -7.4763518,-7.08889 z"
         id="path3738"
         inkscape:connector-curvature="0" />
      <path
         style="fill:#b98a87;stroke-width:0.26458332"
         d="m 10.009471,288.71177 c -3.7589585,-3.86211 -6.8680815,-7.1181 -6.9091624,-7.23554 -0.041081,-0.11744 3.1438409,-3.38166 7.0776044,-7.25383 3.933763,-3.87217 7.152296,-7.11033 7.152296,-7.19591 0,-0.0856 -3.214687,-3.31996 -7.14375,-7.1875 -3.9290621,-3.86754 -7.1437496,-7.14269 -7.1437496,-7.27811 0,-0.31337 13.4579676,-13.93602 14.1188256,-14.2916 0.423955,-0.22811 1.496209,0.73585 7.676966,6.90163 l 7.184182,7.16678 7.137863,-7.14154 c 3.925824,-3.92785 7.256489,-7.14154 7.401478,-7.14154 0.310502,0 13.789938,13.40146 14.190435,14.10835 0.235204,0.41514 -0.733472,1.47173 -6.956266,7.58761 l -7.229525,7.10531 7.269424,7.29038 7.269425,7.29039 -7.130606,7.14856 c -3.921831,3.93172 -7.332557,7.14857 -7.579386,7.14857 -0.246827,0 -3.523986,-3.15487 -7.282569,-7.01082 -3.758584,-3.85595 -6.953692,-7.01111 -7.100245,-7.01146 -0.14655,-3.5e-4 -3.419925,3.15452 -7.274168,7.01082 -3.854243,3.8563 -7.207264,7.01146 -7.451158,7.01146 -0.243894,0 -3.518956,-3.15991 -7.277914,-7.02201 z m 1.972672,-14.08013 c 4.400853,-4.30636 6.687139,-6.72726 6.680729,-7.07408 -0.0068,-0.36976 -2.064671,1.52653 -6.888913,6.3481 -3.7835412,3.78144 -6.8791662,6.9655 -6.8791662,7.07569 0,0.11019 0.089297,0.19962 0.1984375,0.19873 0.1091406,-8e-4 3.2091511,-2.94769 6.8889127,-6.54844 z m 27.639212,-27.59589 c 5.874631,-5.95677 7.13023,-7.3712 6.289363,-7.08496 -0.24779,0.0844 -13.763842,13.47518 -13.763842,13.63632 0,0.0429 0.208359,0.0803 0.463021,0.0833 0.258948,0.003 3.349202,-2.92118 7.011458,-6.63464 z m -28.444866,-0.57841 c 5.235658,-5.23178 6.381821,-6.55064 5.692857,-6.55064 -0.107953,0 -2.846391,2.64815 -6.085416,5.88477 -5.2356577,5.23178 -6.3818207,6.55064 -5.6928574,6.55064 0.1079537,0 2.8463912,-2.64815 6.0854164,-5.88477 z"
         id="path3736"
         inkscape:connector-curvature="0" />
      <path
         style="fill:#ef5c5b;stroke-width:0.26458332"
         d="m 10.04764,288.56849 -7.1372222,-7.16528 7.2098962,-7.11234 c 3.965442,-3.91179 7.209895,-7.20528 7.209895,-7.31888 0,-0.1136 -3.233925,-3.44207 -7.186501,-7.39661 l -7.1865019,-7.19007 7.1806989,-7.23149 7.1807,-7.2315 7.281844,7.27424 7.281844,7.27424 7.276026,-7.27242 7.276023,-7.27242 7.143768,7.14009 c 3.929071,3.92706 7.143766,7.27791 7.143766,7.44636 0,0.16844 -3.155156,3.37162 -7.011458,7.11816 -3.856302,3.74655 -7.011459,7.00203 -7.011459,7.2344 0,0.23237 3.184372,3.6085 7.076382,7.50252 l 7.076382,7.08002 -7.211938,7.20928 -7.211939,7.20928 -7.116971,-7.13591 c -3.914333,-3.92475 -7.220178,-7.17032 -7.346318,-7.21236 -0.126143,-0.0421 -3.431873,3.13935 -7.346071,7.06976 -3.914197,3.93042 -7.188025,7.14622 -7.275173,7.14622 -0.08715,0 -3.370201,-3.22438 -7.295673,-7.16529 z m 1.934503,-13.93685 c 4.400853,-4.30636 6.687139,-6.72726 6.680729,-7.07408 -0.0068,-0.36976 -2.064671,1.52653 -6.888913,6.3481 -3.7835412,3.78144 -6.8791662,6.9655 -6.8791662,7.07569 0,0.11019 0.089297,0.19962 0.1984375,0.19873 0.1091406,-8e-4 3.2091511,-2.94769 6.8889127,-6.54844 z m 27.639212,-27.59589 c 5.874631,-5.95677 7.13023,-7.3712 6.289363,-7.08496 -0.24779,0.0844 -13.763842,13.47518 -13.763842,13.63632 0,0.0429 0.208359,0.0803 0.463021,0.0833 0.258948,0.003 3.349202,-2.92118 7.011458,-6.63464 z m -28.444866,-0.57841 c 5.235658,-5.23178 6.381821,-6.55064 5.692857,-6.55064 -0.107953,0 -2.846391,2.64815 -6.085416,5.88477 -5.2356577,5.23178 -6.3818207,6.55064 -5.6928574,6.55064 0.1079537,0 2.8463912,-2.64815 6.0854164,-5.88477 z"
         id="path3734"
         inkscape:connector-curvature="0" />
      <path
         style="fill:#a35b5a;stroke-width:0.26458332"
         d="m 10.359274,288.89516 c -5.5608486,-5.56394 -6.8180786,-6.95328 -6.7449673,-7.45376 0.099318,-0.67986 0.7513194,-1.06374 0.7513194,-0.44235 0,1.2918 1.0349516,0.50266 7.2252869,-5.50922 3.520415,-3.41892 6.668645,-6.59941 6.996067,-7.06774 0.821174,-1.17456 0.780038,-1.62521 -0.132291,-1.44925 -0.661619,0.1276 -1.370358,-0.49936 -7.815087,-6.91337 -5.0569799,-5.03287 -7.0657027,-7.19967 -7.0114587,-7.56324 0.092967,-0.6231 0.7374828,-0.89267 0.7374828,-0.30846 0,0.25654 0.2307664,0.42091 0.5953125,0.42405 0.4292947,0.004 2.2739384,-1.69565 6.6145834,-6.09355 3.310599,-3.35427 6.019271,-6.26769 6.019271,-6.47427 0,-0.20658 -0.19531,-0.48489 -0.434022,-0.61848 -0.513956,-0.28763 -0.257387,-0.84174 0.389747,-0.84174 0.60033,0 14.569135,14.05395 14.406853,14.49467 -0.06875,0.1867 -0.05637,0.51828 0.0275,0.73685 0.292467,0.76216 1.52586,-0.28813 8.203903,-6.98596 4.729382,-4.7434 6.540945,-6.72544 6.424451,-7.02901 -0.08923,-0.23254 -0.35915,-0.4228 -0.599818,-0.4228 -0.358957,0 -0.378396,-0.0713 -0.108199,-0.39687 0.181158,-0.21829 0.524016,-0.39688 0.76191,-0.39688 0.482053,0 14.054757,13.45448 14.054757,13.93234 0,0.1664 -3.155156,3.36791 -7.011458,7.11445 -3.856302,3.74655 -7.011459,7.00203 -7.011459,7.2344 0,0.23237 3.184372,3.6085 7.076382,7.50252 l 7.076382,7.08002 -7.211938,7.20928 -7.211939,7.20928 -7.116971,-7.13591 c -3.914333,-3.92475 -7.220178,-7.17032 -7.346318,-7.21236 -0.126143,-0.0421 -3.431873,3.13935 -7.346071,7.06976 -3.914197,3.93042 -7.185946,7.14622 -7.270553,7.14622 -0.08461,0 -3.229504,-3.07738 -6.988658,-6.83862 z"
         id="path3732"
         inkscape:connector-curvature="0" />
      <path
         style="fill:#fb090a;stroke-width:0.26458332"
         d="m 10.405963,288.58016 c -3.6859874,-3.78898 -6.7017952,-7.08304 -6.7017952,-7.32014 0,-0.23711 0.1488281,-0.48071 0.3307291,-0.54134 0.1819011,-0.0606 0.3307292,0.0655 0.3307292,0.28037 0,1.2918 1.0349516,0.50266 7.2252869,-5.50922 6.221308,-6.04195 7.59138,-7.53565 7.59138,-8.27637 0,-0.21677 -0.233983,-0.3269 -0.595313,-0.2802 -0.468188,0.0605 -2.137212,-1.44232 -7.815928,-7.0376 -4.1483062,-4.08736 -7.1879103,-7.28303 -7.1437502,-7.51055 0.1058952,-0.54558 0.7383243,-0.71462 0.7383243,-0.19734 0,0.25654 0.2307664,0.42091 0.5953125,0.42405 0.4292947,0.004 2.2739384,-1.69565 6.6145834,-6.09355 3.310599,-3.35427 6.019271,-6.27735 6.019271,-6.49572 0,-0.21837 -0.178594,-0.46558 -0.396875,-0.54934 -0.518113,-0.19882 -0.50676,-0.59929 0.02275,-0.80248 0.299824,-0.11505 2.472318,1.88669 7.609537,7.01146 3.954452,3.94487 7.147671,7.29922 7.09604,7.4541 -0.05163,0.15489 -0.02524,0.46044 0.05863,0.67901 0.292467,0.76216 1.52586,-0.28813 8.203903,-6.98596 4.729382,-4.7434 6.540945,-6.72544 6.424451,-7.02901 -0.08923,-0.23254 -0.35915,-0.4228 -0.599818,-0.4228 -0.358957,0 -0.378396,-0.0713 -0.108199,-0.39687 0.181158,-0.21829 0.466673,-0.39688 0.634479,-0.39688 0.343736,0 13.917605,13.52701 13.917605,13.86956 0,0.12106 -3.155156,3.31238 -7.011459,7.09183 -3.856302,3.77945 -7.011458,7.06761 -7.011458,7.30701 0,0.23941 3.184369,3.62129 7.076377,7.5153 l 7.076376,7.08002 -7.094942,7.07699 -7.094945,7.077 -7.086656,-7.2099 c -3.897661,-3.96544 -7.194118,-7.20989 -7.325458,-7.20989 -0.131341,0 -3.451836,3.21468 -7.378877,7.14375 -3.927041,3.92906 -7.220719,7.14375 -7.319284,7.14375 -0.09856,0 -3.195016,-3.10007 -6.881004,-6.88904 z"
         id="path3730"
         inkscape:connector-curvature="0" />
      <path
         style="fill:#9c1010;stroke-width:0.26458332"
         d="m 12.960503,291.16972 c -8.4383966,-8.57416 -9.5593931,-9.78787 -8.8594602,-9.5922 0.3638021,0.1017 3.3413149,2.85221 6.6166952,6.11225 3.27538,3.26004 6.133791,5.92734 6.352025,5.92734 0.218233,0 3.312908,-2.92493 6.877055,-6.49986 3.564146,-3.57492 6.789937,-6.66442 7.168424,-6.86556 0.577207,-0.30674 0.769951,-0.30841 1.195493,-0.0103 0.279038,0.19544 3.414781,3.28494 6.968324,6.86556 3.553542,3.58061 6.647944,6.5102 6.876454,6.5102 0.550947,0 12.449696,-11.91979 12.449696,-12.47171 0,-0.23592 -3.036093,-3.44358 -6.746875,-7.12813 -5.2858,-5.24844 -6.746875,-6.84454 -6.746875,-7.37038 0,-0.52469 1.458143,-2.12705 6.68073,-7.34146 3.674401,-3.66866 6.722075,-6.87009 6.772611,-7.11429 0.06017,-0.29077 -1.971411,-2.51443 -5.88698,-6.44355 -4.52624,-4.5419 -5.978861,-6.15657 -5.978861,-6.64584 0,-0.52663 1.227749,0.578 6.631242,5.96631 3.647183,3.63693 6.750828,6.82811 6.896989,7.09152 0.226875,0.40888 -0.76246,1.48665 -6.763533,7.36813 -3.866105,3.78905 -7.029281,7.08507 -7.029281,7.32447 0,0.23941 3.184369,3.62129 7.076377,7.5153 l 7.076376,7.08002 -7.094942,7.07699 -7.094945,7.077 -7.086656,-7.2099 c -3.897661,-3.96544 -7.194118,-7.20989 -7.325458,-7.20989 -0.131341,0 -3.451836,3.21468 -7.378877,7.14375 -3.927041,3.92906 -7.201786,7.14375 -7.277211,7.14375 -0.07542,0 -2.041267,-1.93477 -4.368537,-4.29948 z m -2.415522,-31.52455 c -5.8242809,-5.75186 -6.9883698,-7.01898 -6.4563361,-7.02776 0.500573,-0.008 2.1200348,1.45578 7.0789041,6.39956 5.85178,5.83397 6.994714,7.13337 6.611486,7.51659 -0.07076,0.0708 -3.326085,-3.02901 -7.234054,-6.88839 z M 24.14578,246.32284 c -5.517224,-5.49732 -6.945533,-7.16813 -6.504659,-7.609 0.06043,-0.0604 3.258812,3.04074 7.107507,6.89149 5.691654,5.69469 6.876889,7.00137 6.350691,7.00137 -0.491008,0 -2.167001,-1.51458 -6.953539,-6.28386 z"
         id="path3728"
         inkscape:connector-curvature="0" />
      <path
         style="fill:#7a0909;stroke-width:0.26458332"
         d="m 16.960049,294.98325 c -0.161499,-0.26131 13.317345,-13.77131 14.202,-14.23483 0.506037,-0.26514 0.712367,-0.23426 1.258089,0.18831 l 0.65278,0.50546 -0.806847,-0.15271 c -0.767408,-0.14525 -1.143574,0.1911 -7.696,6.88121 -3.789034,3.86866 -7.020567,7.03392 -7.181184,7.03392 -0.160617,0 -0.353594,-0.0996 -0.428838,-0.22136 z m 28.94516,-0.17551 c -0.266086,-0.32062 -0.258249,-0.39688 0.04078,-0.39688 0.444846,0 13.452969,-12.98732 13.452969,-13.43146 0,-0.17146 0.183365,-0.2399 0.409864,-0.15298 0.225425,0.0865 0.374253,0.31092 0.330729,0.49872 -0.09875,0.42607 -13.349986,13.87947 -13.67091,13.87947 -0.12873,0 -0.382275,-0.17859 -0.563433,-0.39687 z m 0.06365,-27.38079 c -0.180525,-0.28906 -0.328229,-0.72848 -0.328229,-0.97647 0,-0.248 3.084282,-3.49407 6.853957,-7.21349 3.769678,-3.71942 6.91056,-6.94118 6.979735,-7.15946 0.110556,-0.34885 0.178753,-0.3466 0.563512,0.0186 0.402902,0.38241 -0.131439,0.97675 -6.715151,7.46924 -3.934087,3.87958 -7.152886,7.21092 -7.152886,7.40298 0,0.19206 0.142875,0.49208 0.3175,0.6667 0.174625,0.17463 0.203266,0.3175 0.06365,0.3175 -0.13962,0 -0.401558,-0.23651 -0.582083,-0.52558 z"
         id="path3726"
         inkscape:connector-curvature="0" />
    </g>
  </g>
</svg>
